<?xml version="1.0" encoding="iso-8859-1"?>
<!-- Generator: Adobe Illustrator 19.0.0, SVG Export Plug-In . SVG Version: 6.00 Build 0)  -->
<svg version="1.1" id="Capa_1" xmlns="http://www.w3.org/2000/svg" xmlns:xlink="http://www.w3.org/1999/xlink" x="0px" y="0px"
	 viewBox="0 0 512 512" style="enable-background:new 0 0 512 512;" xml:space="preserve">
<path style="fill:#34ABE0;" d="M512,256c0,8.244-0.387,16.405-1.16,24.45c-12.309,129.922-121.699,231.548-254.839,231.548
	C114.617,511.998,0.003,397.384,0.003,256c0-12.194,0.857-24.189,2.508-35.934c2.591-18.463,7.158-36.3,13.469-53.289
	c7.753-20.856,18.16-40.437,30.793-58.315c5.224-7.398,10.836-14.503,16.791-21.295c3.176-3.626,6.468-7.158,9.853-10.595
	c13.228-13.469,27.94-25.485,43.885-35.777c29.403-18.996,62.965-32.12,99.003-37.731c1.473-0.24,2.947-0.449,4.43-0.658
	c8.746-1.202,17.638-1.964,26.645-2.257c2.863-0.094,5.736-0.146,8.62-0.146c11.964,0,23.74,0.825,35.265,2.403
	c22.371,3.082,43.823,9.059,63.958,17.533c13.824,5.82,27.021,12.81,39.476,20.856c9.32,6.019,18.223,12.622,26.645,19.759
	c9.676,8.192,18.735,17.094,27.094,26.613c5.956,6.792,11.567,13.897,16.791,21.295c8.599,12.173,16.175,25.14,22.57,38.755
	C503.327,180.235,512,217.11,512,256z"/>
<g>
	<path style="fill:#78CAEF;" d="M369.999,59.906c0,7.356-5.966,13.322-13.322,13.322h-1.306c-3.678,0-7.011,1.494-9.425,3.897
		c-2.403,2.414-3.897,5.747-3.897,9.425c0,7.356-5.966,13.322-13.322,13.322H136.853c-3.678,0-7.011-1.494-9.414-3.897
		c-2.414-2.414-3.908-5.747-3.908-9.425c0-7.356,5.966-13.322,13.322-13.322h40.5c3.678,0,7.011-1.494,9.414-3.897
		c2.414-2.414,3.908-5.747,3.908-9.425c0-7.356-5.966-13.322-13.322-13.322h-11.306c-3.678,0-7.011-1.494-9.414-3.897
		c-2.414-2.414-3.908-5.747-3.908-9.425c0-7.356,5.966-13.322,13.322-13.322h37.418c3.678,0,7.011-1.494,9.425-3.897
		c2.403-2.414,3.897-5.747,3.897-9.425c0-1.233-0.167-2.424-0.481-3.553c1.473-0.24,2.947-0.449,4.43-0.658
		c8.746-1.202,17.638-1.964,26.645-2.257c2.863-0.094,5.736-0.146,8.62-0.146c11.964,0,23.74,0.825,35.265,2.403
		c22.371,3.082,43.823,9.059,63.958,17.533h-22.967c-3.678,0-7.011,1.494-9.425,3.897c-2.403,2.414-3.897,5.747-3.897,9.425
		c0,7.356,5.956,13.322,13.322,13.322h24.419c3.678,0,7.011,1.494,9.414,3.897C368.505,52.894,369.999,56.228,369.999,59.906z"/>
	<path style="fill:#78CAEF;" d="M512,256c0-38.891-8.673-75.765-24.2-108.784h-61.805c-3.678,0-7.011,1.494-9.414,3.908
		c-2.414,2.403-3.908,5.736-3.908,9.414c0,7.366,5.966,13.322,13.322,13.322h40.5c3.678,0,7.011,1.494,9.414,3.908
		c2.414,2.403,3.908,5.736,3.908,9.414c0,7.366-5.966,13.322-13.322,13.322h-11.306c-3.678,0-7.011,1.494-9.414,3.908
		c-2.414,2.403-3.908,5.747-3.908,9.425c0,7.356,5.966,13.322,13.322,13.322h37.418c3.678,0,7.011,1.494,9.425,3.897
		c2.403,2.414,3.897,5.747,3.897,9.425c0,7.356-5.966,13.322-13.322,13.322h-82.16c-3.678,0-7.011,1.494-9.414,3.897
		c-2.414,2.414-3.908,5.747-3.908,9.425c0,7.356,5.966,13.322,13.322,13.322H510.84C511.613,272.405,512,264.244,512,256z"/>
	<path style="fill:#78CAEF;" d="M151.648,279.892L151.648,279.892c0,7.358-5.965,13.323-13.323,13.323H26.053
		c-7.358,0-13.322-5.965-13.322-13.322l0,0c0-7.358,5.965-13.322,13.322-13.322H62.37c7.358,0,13.322-5.965,13.322-13.323l0,0
		c0-7.358-5.965-13.323-13.322-13.323h-3.702c-7.358,0-13.322-5.965-13.322-13.323l0,0c0-7.358,5.965-13.323,13.322-13.323h107.604
		c7.358,0,13.322,5.965,13.322,13.323l0,0c0,7.358,5.965,13.323,13.323,13.323h3.702c7.358,0,13.323,5.965,13.323,13.323l0,0
		c0,7.358-5.965,13.323-13.323,13.323h-31.648C157.614,266.569,151.648,272.534,151.648,279.892z"/>
	<path style="fill:#78CAEF;" d="M263.662,448.739L263.662,448.739c0,7.358,5.965,13.323,13.323,13.323h42.934
		c7.358,0,13.323,5.965,13.323,13.323l0,0c0,7.358-5.965,13.323-13.323,13.323H193.351c-7.358,0-13.323-5.965-13.323-13.323l0,0
		c0-7.358-5.965-13.323-13.323-13.323h-42.934c-7.358,0-13.323-5.965-13.323-13.323l0,0c0-7.358,5.965-13.323,13.323-13.323h63.659
		c7.358,0,13.323-5.965,13.323-13.323l0,0c0-7.358,5.965-13.323,13.323-13.323h126.568c7.358,0,13.323,5.965,13.323,13.323l0,0
		c0,7.358-5.965,13.323-13.323,13.323h-63.659C269.627,435.416,263.662,441.38,263.662,448.739z"/>
	<path style="fill:#78CAEF;" d="M55.936,180.099c0-7.356-5.966-13.322-13.322-13.322H15.98
		c-6.311,16.99-10.877,34.826-13.469,53.289h13.458c7.356,0,13.322-5.966,13.322-13.322c0-3.678,1.494-7.011,3.897-9.414
		c2.414-2.414,5.747-3.908,9.425-3.908c3.678,0,7.011-1.494,9.425-3.908C54.442,187.11,55.936,183.777,55.936,180.099z"/>
</g>
<rect x="98.45" y="177.12" style="fill:#D6C8B0;" width="315.098" height="257.116"/>
<rect x="76.382" y="136.453" style="fill:#CCBBA3;" width="369.871" height="45.639"/>
<polygon style="fill:#F9EED7;" points="255.998,0.003 0,153.697 511.997,153.697 "/>
<rect x="34.229" y="153.694" style="fill:#E8DBC4;" width="95.608" height="36.049"/>
<rect x="62.441" y="170.934" style="fill:#F9EED7;" width="67.396" height="18.808"/>
<path style="fill:#E8DBC4;" d="M117.303,189.743v281.462c-15.945-10.292-30.657-22.308-43.885-35.777
	c-3.385-3.438-6.677-6.969-9.853-10.595c-5.956-6.792-11.567-13.897-16.791-21.295V189.743L117.303,189.743L117.303,189.743z"/>
<path style="fill:#F9EED7;" d="M117.303,216.388v254.818c-15.945-10.292-30.657-22.308-43.885-35.777V216.388H117.303z"/>
<path style="fill:#FCF8F2;" d="M93.786,416.996L93.786,416.996c-6.059,0-10.97-4.912-10.97-10.97V254.001
	c0-6.059,4.912-10.97,10.97-10.97l0,0c6.059,0,10.97,4.912,10.97,10.97v152.024C104.757,412.085,99.845,416.996,93.786,416.996z"/>
<rect x="382.159" y="153.694" style="fill:#E8DBC4;" width="95.608" height="36.049"/>
<rect x="410.371" y="170.934" style="fill:#F9EED7;" width="67.396" height="18.808"/>
<path style="fill:#E8DBC4;" d="M465.231,189.743v213.795c-5.224,7.398-10.836,14.503-16.791,21.295
	c-8.359,9.519-17.418,18.421-27.094,26.613c-8.422,7.137-17.324,13.74-26.645,19.759V189.743H465.231z"/>
<path style="fill:#F9EED7;" d="M465.231,216.388v187.151c-5.224,7.398-10.836,14.503-16.791,21.295
	c-8.359,9.519-17.418,18.421-27.094,26.613V216.388L465.231,216.388L465.231,216.388z"/>
<g>
	<path style="fill:#FCF8F2;" d="M441.717,416.996L441.717,416.996c-6.059,0-10.97-4.912-10.97-10.97V254.001
		c0-6.059,4.912-10.97,10.97-10.97l0,0c6.059,0,10.97,4.912,10.97,10.97v152.024C452.688,412.085,447.777,416.996,441.717,416.996z"
		/>
	<circle style="fill:#FCF8F2;" cx="419.618" cy="130.184" r="12.538"/>
</g>
<path style="fill:#E8DBC4;" d="M448.439,424.834c-8.37,9.54-17.439,18.442-27.136,26.645c-7.993,6.771-16.405,13.051-25.192,18.808
	c-20.825,13.636-43.75,24.325-68.19,31.472c-22.81,6.666-46.957,10.24-71.92,10.24s-49.11-3.574-71.92-10.24
	c-24.44-7.147-47.365-17.836-68.19-31.472c-8.788-5.757-17.199-12.037-25.192-18.808c-9.697-8.202-18.766-17.105-27.136-26.645
	H448.439z"/>
<g>
	<path style="fill:#F9EED7;" d="M421.303,451.478c-7.993,6.771-16.405,13.051-25.192,18.808H115.892
		c-8.788-5.757-17.199-12.037-25.192-18.808H421.303z"/>
	<path style="fill:#F9EED7;" d="M327.921,501.758c-22.81,6.666-46.957,10.24-71.92,10.24s-49.11-3.574-71.92-10.24H327.921z"/>
</g>
<path style="fill:#CCBBA3;" d="M255.998,253.148L255.998,253.148c-33.182,0-60.081,26.9-60.081,60.081v111.605H316.08V313.23
	C316.08,280.047,289.18,253.148,255.998,253.148z"/>
<path style="fill:#5C5E70;" d="M210.546,424.834V313.229c0-25.063,20.39-45.453,45.453-45.453s45.453,20.39,45.453,45.453v111.605
	H210.546z"/>
<g>
	<path style="fill:#F9EED7;" d="M145.376,236.589c-1.759,0-3.457-0.85-3.457-2.486v-39.402c0-1.697,1.939-2.424,3.94-2.424
		c1.939,0,3.94,0.727,3.94,2.424v34.977h14.79c1.577,0,2.365,1.698,2.365,3.455c0,1.698-0.788,3.455-2.365,3.455L145.376,236.589
		L145.376,236.589z"/>
	<path style="fill:#F9EED7;" d="M174.288,194.701c0-1.697,1.939-2.424,3.94-2.424c1.939,0,3.94,0.727,3.94,2.424v39.402
		c0,1.636-2,2.486-3.94,2.486c-2.001,0-3.94-0.85-3.94-2.486V194.701z"/>
	<path style="fill:#F9EED7;" d="M192.472,194.763c0-1.636,1.698-2.485,3.456-2.485h11.699c6.304,0,12.184,2.061,12.184,10.668
		c0,4.971-1.939,8.244-5.153,9.638c3.698,1.456,6.244,3.819,6.244,9.88v1.274c0,9.456-5.274,12.851-12.124,12.851h-12.851
		c-2.122,0-3.456-1.153-3.456-2.425v-39.402H192.472z M200.293,209.493h6.789c3.274,0,4.85-2.122,4.85-5.213
		c0-3.152-1.818-5.093-4.91-5.093h-6.728v10.306H200.293z M207.142,229.679c3.697,0,5.88-2.001,5.88-6.607v-0.97
		c0-4.728-2.183-6.426-5.88-6.426h-6.85v14.003L207.142,229.679L207.142,229.679z"/>
	<path style="fill:#F9EED7;" d="M229.569,194.701c0-1.273,1.03-2.424,2.546-2.424h12.003c7.941,0,14.366,3.03,14.366,12.669
		c0,6.97-3.395,10.729-7.94,12.124l7.94,14.731c0.242,0.303,0.303,0.727,0.303,0.97c0,2-2.606,4.122-4.91,4.122
		c-1.09,0-2.121-0.667-2.727-1.879l-8.608-16.731h-5.092v15.822c0,1.636-1.939,2.486-3.94,2.486c-1.939,0-3.94-0.85-3.94-2.486
		v-39.404H229.569z M237.45,199.187v12.912h6.669c3.94,0,6.486-1.636,6.486-6.426c0-4.789-2.546-6.487-6.486-6.487h-6.669V199.187z"
		/>
	<path style="fill:#F9EED7;" d="M275.03,211.311h9.214c1.577,0,2.486,1.515,2.486,3.152c0,1.394-0.789,3.031-2.486,3.031h-9.214
		v12.184h17.155c1.577,0,2.486,1.636,2.486,3.516c0,1.636-0.788,3.395-2.486,3.395h-21.579c-1.759,0-3.457-0.85-3.457-2.486v-39.341
		c0-1.636,1.698-2.485,3.457-2.485h21.579c1.698,0,2.486,1.758,2.486,3.395c0,1.88-0.909,3.516-2.486,3.516H275.03V211.311z"/>
	<path style="fill:#F9EED7;" d="M302.306,194.701c0-1.273,1.03-2.424,2.546-2.424h12.003c7.941,0,14.366,3.03,14.366,12.669
		c0,6.97-3.395,10.729-7.941,12.124l7.941,14.731c0.242,0.303,0.303,0.727,0.303,0.97c0,2-2.606,4.122-4.91,4.122
		c-1.091,0-2.121-0.667-2.727-1.879l-8.608-16.731h-5.092v15.822c0,1.636-1.939,2.486-3.94,2.486c-1.939,0-3.94-0.85-3.94-2.486
		v-39.404H302.306z M310.186,199.187v12.912h6.668c3.94,0,6.486-1.636,6.486-6.426c0-4.789-2.546-6.487-6.486-6.487h-6.668V199.187z
		"/>
	<path style="fill:#F9EED7;" d="M349.284,218.828c0-0.303-0.061-0.606-0.182-0.788l-12.548-21.701
		c-0.121-0.303-0.182-0.606-0.182-0.788c0-1.939,3.091-3.274,5.213-3.274c1.273,0,1.879,0.485,2.424,1.576l9.214,17.519
		l9.274-17.519c0.544-1.03,1.091-1.576,2.365-1.576c2.121,0,5.213,1.333,5.213,3.274c0,0.182,0,0.485-0.183,0.788l-12.486,21.701
		c-0.121,0.182-0.242,0.485-0.242,0.788v15.275c0,1.636-1.939,2.486-3.94,2.486c-1.939,0-3.94-0.85-3.94-2.486v-15.275H349.284z"/>
</g>
<circle style="fill:#D6C8B0;" cx="255.998" cy="86.246" r="51.21"/>
<circle style="fill:#E8DBC4;" cx="255.998" cy="86.246" r="43.883"/>
<g>
	<path style="fill:#5C5E70;" d="M255.654,54.967L255.654,54.967c-2.5,0-4.528,2.027-4.528,4.528v22.227
		c0,2.5,2.027,4.528,4.528,4.528l0,0c2.5,0,4.528-2.027,4.528-4.528V59.495C260.181,56.994,258.154,54.967,255.654,54.967z"/>
	<path style="fill:#5C5E70;" d="M291.495,82.054L291.495,82.054c0-2.318-1.879-4.195-4.195-4.195h-31.979
		c-2.318,0-4.195,1.879-4.195,4.195l0,0c0,2.318,1.879,4.195,4.195,4.195H287.3C289.617,86.249,291.495,84.371,291.495,82.054z"/>
</g>
<g>
	<path style="fill:#E8DBC4;" d="M141.757,404.658L141.757,404.658c-4.232,0-7.662-3.43-7.662-7.662V286.933
		c0-4.232,3.43-7.662,7.662-7.662l0,0c4.232,0,7.662,3.43,7.662,7.662v110.062C149.419,401.226,145.989,404.658,141.757,404.658z"/>
	<path style="fill:#E8DBC4;" d="M172.407,404.658L172.407,404.658c-4.232,0-7.662-3.43-7.662-7.662V286.933
		c0-4.232,3.43-7.662,7.662-7.662l0,0c4.232,0,7.662,3.43,7.662,7.662v110.062C180.069,401.226,176.639,404.658,172.407,404.658z"/>
	<path style="fill:#E8DBC4;" d="M339.59,404.658L339.59,404.658c-4.232,0-7.662-3.43-7.662-7.662V286.933
		c0-4.232,3.43-7.662,7.662-7.662l0,0c4.232,0,7.662,3.43,7.662,7.662v110.062C347.252,401.226,343.822,404.658,339.59,404.658z"/>
	<path style="fill:#E8DBC4;" d="M370.24,404.658L370.24,404.658c-4.232,0-7.662-3.43-7.662-7.662V286.933
		c0-4.232,3.43-7.662,7.662-7.662l0,0c4.232,0,7.662,3.43,7.662,7.662v110.062C377.903,401.226,374.471,404.658,370.24,404.658z"/>
</g>
<g>
</g>
<g>
</g>
<g>
</g>
<g>
</g>
<g>
</g>
<g>
</g>
<g>
</g>
<g>
</g>
<g>
</g>
<g>
</g>
<g>
</g>
<g>
</g>
<g>
</g>
<g>
</g>
<g>
</g>
</svg>
