<svg width="60" height="60" viewBox="0 0 60 60" fill="none" xmlns="http://www.w3.org/2000/svg">
<g clip-path="url(#clip0)">
<path d="M29.9999 32C32.7614 32 34.9999 29.7614 34.9999 27C34.9999 24.2385 32.7614 22 29.9999 22C27.2385 22 24.9999 24.2385 24.9999 27C24.9999 29.7614 27.2385 32 29.9999 32Z" fill="#F4CEA4"/>
<path d="M35 49.25C41.39 49.91 46 51.79 46 54C46 56.76 38.84 59 30 59C21.16 59 14 56.76 14 54C14 51.79 18.61 49.91 25 49.25H35Z" fill="#7948EB"/>
<path d="M13 60C12.8766 60.0001 12.7542 59.9774 12.639 59.933C8.9 58.483 7 56.489 7 54C7 51.511 8.9 49.512 12.639 48.063C13.1543 47.8639 13.7334 48.1202 13.9325 48.6355C14.1316 49.1508 13.8753 49.7299 13.36 49.929C10.467 51.053 9 52.422 9 54C9 55.963 11.372 57.293 13.361 58.063C13.8165 58.2327 14.084 58.7054 13.9949 59.1833C13.9059 59.6612 13.4861 60.0058 13 60Z" fill="#6C32F2" fill-opacity="0.44"/>
<path d="M47 60C46.5181 60.0005 46.1043 59.6573 46.0159 59.1835C45.9274 58.7098 46.1894 58.2404 46.639 58.067C48.628 57.3 51 55.967 51 54C51 52.419 49.533 51.05 46.639 49.929C46.3057 49.7998 46.0666 49.5027 46.0118 49.1494C45.9569 48.7962 46.0947 48.4405 46.3733 48.2164C46.6518 47.9923 47.0287 47.9338 47.362 48.063C51.1 49.517 53 51.515 53 54C53 56.485 51.1 58.479 47.361 59.929C47.2461 59.9748 47.1237 59.9988 47 60Z" fill="#6C32F2" fill-opacity="0.44"/>
<path d="M43.37 43.16C42.9298 43.656 42.3106 43.9569 41.6485 43.9963C40.9865 44.0356 40.3359 43.8103 39.84 43.37L35 39.62V48H25V39.62L20.16 43.74C19.4919 44.333 18.5582 44.5246 17.7105 44.2426C16.8629 43.9605 16.2301 43.2477 16.0505 42.3726C15.871 41.4975 16.1719 40.593 16.84 40L24.3 33.48C25.3964 32.5286 26.7984 32.0033 28.25 32H31.83C33.2332 32 34.5919 32.4919 35.67 33.39L43.16 39.63C43.6561 40.0702 43.9569 40.6894 43.9963 41.3515C44.0357 42.0135 43.8104 42.6641 43.37 43.16Z" fill="#FF5364"/>
<path d="M24.9999 47H34.9999V54.75H24.9999V47Z" fill="#285680"/>
<path d="M25 10.75C18.61 10.09 14 8.21 14 6C14 3.24 21.16 1 30 1C38.84 1 46 3.24 46 6C46 8.21 41.39 10.09 35 10.75H25Z" fill="#2F9FC3"/>
<path d="M30 4.99997V13.5C30 14.8807 28.8807 16 27.4999 16C26.1192 16 24.9999 14.8807 24.9999 13.5V5.24997L30 4.99997Z" fill="#2C3E50"/>
<path d="M35 5.24997V13.5C35 14.8807 33.8807 16 32.5 16C31.1193 16 30 14.8807 30 13.5V4.99997L35 5.24997Z" fill="#285680"/>
<path d="M13 12C12.8766 12.0001 12.7542 11.9774 12.639 11.933C8.9 10.483 7 8.48898 7 5.99998C7 3.51098 8.9 1.51597 12.639 0.066975C13.1543 -0.132124 13.7334 0.124193 13.9325 0.639475C14.1316 1.15476 13.8753 1.73388 13.36 1.93297C10.467 3.05297 9 4.42198 9 5.99998C9 7.96298 11.372 9.29297 13.361 10.063C13.8165 10.2327 14.084 10.7054 13.9949 11.1833C13.9059 11.6611 13.4861 12.0057 13 12Z" fill="#67B0C3"/>
<path d="M47 12C46.5181 12.0005 46.1043 11.6573 46.0159 11.1836C45.9274 10.7098 46.1894 10.2404 46.639 10.067C48.628 9.29997 51 7.96697 51 5.99997C51 4.41897 49.533 3.04997 46.639 1.92897C46.1529 1.71132 45.9227 1.15083 46.1154 0.654313C46.3082 0.157798 46.8564 -0.100467 47.362 0.0669735C51.1 1.51697 53 3.51497 53 5.99997C53 8.48497 51.1 10.479 47.361 11.929C47.2461 11.9748 47.1237 11.9988 47 12Z" fill="#67B0C3"/>
<path d="M30 56C29.4477 56 29 55.5522 29 55V51C29 50.4477 29.4477 50 30 50C30.5523 50 31 50.4477 31 51V55C31 55.5522 30.5523 56 30 56Z" fill="#2C3E50"/>
<path d="M30 56C27.6289 56.0091 25.2603 55.842 22.914 55.5C22.3678 55.4171 21.9921 54.9072 22.075 54.361C22.1578 53.8148 22.6678 53.4391 23.214 53.522C25.461 53.8496 27.7293 54.0093 30 54C32.3326 54.0087 34.6625 53.8382 36.969 53.49C37.3222 53.4351 37.6777 53.5729 37.9018 53.8513C38.1259 54.1297 38.1844 54.5065 38.0553 54.8398C37.9262 55.1731 37.6292 55.4121 37.276 55.467C34.8679 55.8304 32.4354 56.0085 30 56Z" fill="#6C32F2"/>
<path d="M37.124 6.52096C37.0722 6.52124 37.0203 6.51757 36.969 6.50996C34.6625 6.16175 32.3327 5.99125 30 5.99996C27.7285 5.99183 25.4596 6.15295 23.212 6.48196C22.8587 6.53555 22.5036 6.39657 22.2805 6.11736C22.0575 5.83816 22.0003 5.46115 22.1305 5.12836C22.2608 4.79557 22.5587 4.55755 22.912 4.50396C25.2589 4.16055 27.6281 3.99209 30 3.99996C32.4354 3.9914 34.8679 4.16959 37.276 4.53296C37.7915 4.61354 38.1585 5.07694 38.1187 5.5972C38.0789 6.11746 37.6458 6.51969 37.124 6.52096Z" fill="#2980B1"/>
</g>
<defs>
<clipPath id="clip0">
<rect width="60" height="60" fill="white"/>
</clipPath>
</defs>
</svg>
