<svg id="_x31_" style='opacity:0.2' enable-background="new 0 0 24 24" height="512" viewBox="0 0 24 24" width="512" xmlns="http://www.w3.org/2000/svg"><g><path d="m21.5 24h-19c-1.378 0-2.5-1.121-2.5-2.5v-13c0-1.379 1.122-2.5 2.5-2.5h19c1.378 0 2.5 1.121 2.5 2.5v13c0 1.379-1.122 2.5-2.5 2.5zm-19-17c-.827 0-1.5.673-1.5 1.5v13c0 .827.673 1.5 1.5 1.5h19c.827 0 1.5-.673 1.5-1.5v-13c0-.827-.673-1.5-1.5-1.5z"/></g><g><path d="m5 13c-1.103 0-2-.897-2-2s.897-2 2-2 2 .897 2 2-.897 2-2 2zm0-3c-.551 0-1 .448-1 1s.449 1 1 1 1-.448 1-1-.449-1-1-1z"/></g><g><path d="m12 4c-1.103 0-2-.897-2-2s.897-2 2-2 2 .897 2 2-.897 2-2 2zm0-3c-.551 0-1 .448-1 1s.449 1 1 1 1-.448 1-1-.449-1-1-1z"/></g><g><path d="m.5 22c-.128 0-.256-.049-.354-.146-.195-.195-.195-.512 0-.707l5.793-5.793c.585-.584 1.536-.584 2.121 0l1.44 1.439 4.939-4.939c.585-.584 1.536-.584 2.121 0l7.293 7.293c.195.195.195.512 0 .707s-.512.195-.707 0l-7.293-7.293c-.195-.195-.512-.195-.707 0l-5.292 5.292c-.195.195-.512.195-.707 0l-1.794-1.792c-.189-.189-.518-.189-.707 0l-5.793 5.793c-.097.097-.225.146-.353.146z"/></g><g><path d="m21 7c-.075 0-.151-.017-.223-.053l-7.67-3.83c-.247-.123-.348-.424-.224-.671.124-.246.424-.348.67-.224l7.67 3.83c.247.123.348.424.224.671-.087.175-.264.277-.447.277z"/></g><g><path d="m3 7c-.183 0-.36-.102-.447-.276-.124-.247-.023-.548.224-.671l7.67-3.83c.246-.124.547-.022.67.224.124.247.023.548-.224.671l-7.67 3.83c-.071.035-.147.052-.223.052z"/></g></svg>