<svg width="48" height="48" viewBox="0 0 48 48" fill="none" xmlns="http://www.w3.org/2000/svg">
<path d="M24.3999 13C26.609 13 28.3999 11.2091 28.3999 9C28.3999 6.79086 26.609 5 24.3999 5C22.1908 5 20.3999 6.79086 20.3999 9C20.3999 11.2091 22.1908 13 24.3999 13Z" fill="#F4CEA4"/>
<path d="M28.4001 26.8C33.5121 27.328 37.2001 28.832 37.2001 30.6C37.2001 32.808 31.4721 34.6 24.4001 34.6C17.3281 34.6 11.6001 32.808 11.6001 30.6C11.6001 28.832 15.2881 27.328 20.4001 26.8H28.4001Z" fill="white"/>
<path d="M10.8 35.4C10.7013 35.4001 10.6033 35.3819 10.5112 35.3464C7.52 34.1864 6 32.5912 6 30.6C6 28.6088 7.52 27.0096 10.5112 25.8504C10.9234 25.6911 11.3867 25.8962 11.546 26.3084C11.7053 26.7206 11.5002 27.1839 11.088 27.3432C8.7736 28.2424 7.6 29.3376 7.6 30.6C7.6 32.1704 9.4976 33.2344 11.0888 33.8504C11.4532 33.9862 11.6672 34.3643 11.5959 34.7466C11.5247 35.1289 11.1889 35.4046 10.8 35.4Z" fill="white" fill-opacity="0.44"/>
<path d="M38 35.4C37.6144 35.4004 37.2834 35.1258 37.2126 34.7468C37.1419 34.3679 37.3515 33.9923 37.7112 33.8536C39.3024 33.24 41.2 32.1736 41.2 30.6C41.2 29.3352 40.0264 28.24 37.7112 27.3432C37.4445 27.2399 37.2532 27.0021 37.2094 26.7195C37.1655 26.437 37.2757 26.1524 37.4986 25.9731C37.7214 25.7939 38.0229 25.7471 38.2896 25.8504C41.28 27.0136 42.8 28.612 42.8 30.6C42.8 32.588 41.28 34.1832 38.2888 35.3432C38.1968 35.3798 38.0989 35.3991 38 35.4Z" fill="white" fill-opacity="0.44"/>
<path d="M35.0959 21.928C34.7438 22.3249 34.2483 22.5655 33.7187 22.597C33.1891 22.6285 32.6686 22.4483 32.2719 22.096L28.3999 19.096V25.8H20.3999V19.096L16.5279 22.392C15.9934 22.8664 15.2465 23.0197 14.5683 22.7941C13.8902 22.5684 13.384 21.9982 13.2403 21.2981C13.0967 20.598 13.3374 19.8744 13.8719 19.4L19.8399 14.184C20.717 13.4229 21.8386 13.0027 22.9999 13H25.8639C26.9864 13.0001 28.0734 13.3935 28.9359 14.112L34.9279 19.104C35.3248 19.4561 35.5654 19.9516 35.5969 20.4812C35.6285 21.0108 35.4482 21.5313 35.0959 21.928Z" fill="#FF5364"/>
<path d="M20.3999 25H28.3999V31.2H20.3999V25Z" fill="#285680"/>
<path d="M24.4001 32.2C23.9583 32.2 23.6001 31.8418 23.6001 31.4V28.2C23.6001 27.7582 23.9583 27.4 24.4001 27.4C24.8419 27.4 25.2001 27.7582 25.2001 28.2V31.4C25.2001 31.8418 24.8419 32.2 24.4001 32.2Z" fill="#2C3E50"/>
<path d="M24.3999 32.2C22.503 32.2073 20.6082 32.0736 18.7311 31.8C18.2942 31.7337 17.9937 31.3258 18.0599 30.8888C18.1262 30.4518 18.5342 30.1513 18.9711 30.2176C20.7687 30.4796 22.5834 30.6075 24.3999 30.6C26.2661 30.607 28.1299 30.4706 29.9752 30.192C30.2577 30.1481 30.5421 30.2583 30.7214 30.481C30.9007 30.7038 30.9475 31.0052 30.8442 31.2718C30.7409 31.5385 30.5033 31.7297 30.2207 31.7736C28.2942 32.0643 26.3483 32.2068 24.3999 32.2Z" fill="white"/>
</svg>
